<?xml version="1.0" encoding="UTF-8"?>
<svg version="1.1" xmlns="http://www.w3.org/2000/svg" width="128" height="128">
<path d="M0 0 C1.13142779 0.88770125 2.25905828 1.78040771 3.375 2.6875 C2.80119828 6.35127743 1.40230342 8.01517225 -1.22265625 10.578125 C-1.94130859 11.28710938 -2.65996094 11.99609375 -3.40039062 12.7265625 C-4.15513672 13.45617187 -4.90988281 14.18578125 -5.6875 14.9375 C-6.44611328 15.68257812 -7.20472656 16.42765625 -7.98632812 17.1953125 C-9.85932207 19.03296694 -11.73895611 20.86325724 -13.625 22.6875 C-17.62223215 21.10012606 -21.53361403 19.38458368 -25.44140625 17.58984375 C-33.29787561 14.34325266 -42.45699034 14.62632286 -50.4375 17.3125 C-59.66842145 21.17099837 -65.82728889 26.86631158 -70.625 35.6875 C-74.24847152 44.92606747 -74.89523044 54.23669051 -71.625 63.6875 C-66.5174137 74.32694495 -60.46384812 80.43901671 -49.4921875 84.7421875 C-38.94948187 88.21812042 -29.84159511 86.83355187 -19.625 82.6875 C-12.11215528 78.72004267 -8.26955563 72.62116689 -5.625 64.6875 C-6.58913818 64.69273682 -7.55327637 64.69797363 -8.54663086 64.70336914 C-12.11172564 64.72142118 -15.67681636 64.73293274 -19.24194336 64.74243164 C-20.78719766 64.7474714 -22.33244716 64.7543032 -23.87768555 64.76293945 C-26.09425029 64.77502076 -28.31075218 64.78073173 -30.52734375 64.78515625 C-31.56954323 64.79289818 -31.56954323 64.79289818 -32.63279724 64.80079651 C-34.2972933 64.80099277 -35.96165499 64.74939129 -37.625 64.6875 C-39.34067792 62.97182208 -38.75515825 60.71377265 -38.7578125 58.375 C-38.75974609 56.76238281 -38.75974609 56.76238281 -38.76171875 55.1171875 C-38.75785156 53.98539062 -38.75398438 52.85359375 -38.75 51.6875 C-38.75580078 49.98980469 -38.75580078 49.98980469 -38.76171875 48.2578125 C-38.76042969 47.18273438 -38.75914063 46.10765625 -38.7578125 45 C-38.75668457 44.00613281 -38.75555664 43.01226562 -38.75439453 41.98828125 C-38.625 39.6875 -38.625 39.6875 -37.625 38.6875 C-35.81444975 38.59373947 -34.00022799 38.5700589 -32.18725586 38.57397461 C-31.02612778 38.57405014 -29.86499969 38.57412567 -28.66868591 38.57420349 C-26.77340904 38.58194542 -26.77340904 38.58194542 -24.83984375 38.58984375 C-22.91091026 38.59196617 -22.91091026 38.59196617 -20.94300842 38.59413147 C-17.51856557 38.59795582 -14.09416491 38.60778538 -10.66973877 38.61883545 C-7.17761811 38.62905136 -3.68549066 38.63362947 -0.19335938 38.63867188 C6.66277778 38.64940773 13.51888687 38.66648316 20.375 38.6875 C25.82876155 51.36861512 21.85350471 67.65594975 17.125 80 C14.63553302 85.60502744 11.44968132 90.12878526 7.375 94.6875 C6.82972656 95.31398438 6.28445312 95.94046875 5.72265625 96.5859375 C-3.60537742 106.63826555 -18.02852758 113.43153135 -31.7265625 114.0234375 C-51.81053103 114.3522978 -68.71321721 110.02111997 -83.625 95.6875 C-89.75251812 88.69997934 -94.38405492 81.39356815 -97.625 72.6875 C-98.10259766 71.50220703 -98.10259766 71.50220703 -98.58984375 70.29296875 C-103.93579306 54.64929219 -101.28827672 36.3722753 -94.625 21.6875 C-86.93857226 7.0428324 -74.21030515 -3.72145098 -58.625 -9.3125 C-38.18654088 -15.3068184 -17.27864823 -12.79342421 0 0 Z " fill="#33A752" transform="translate(104.625,13.3125)"/>
<path d="M0 0 C1.13142779 0.88770125 2.25905828 1.78040771 3.375 2.6875 C2.80119828 6.35127743 1.40230342 8.01517225 -1.22265625 10.578125 C-1.94130859 11.28710938 -2.65996094 11.99609375 -3.40039062 12.7265625 C-4.15513672 13.45617187 -4.90988281 14.18578125 -5.6875 14.9375 C-6.44611328 15.68257812 -7.20472656 16.42765625 -7.98632812 17.1953125 C-9.85932207 19.03296694 -11.73895611 20.86325724 -13.625 22.6875 C-17.62223215 21.10012606 -21.53361403 19.38458368 -25.44140625 17.58984375 C-33.29787561 14.34325266 -42.45699034 14.62632286 -50.4375 17.3125 C-59.66842145 21.17099837 -65.82728889 26.86631158 -70.625 35.6875 C-73.59853718 43.26896537 -74.78900942 50.53400512 -72.56640625 58.46484375 C-72.29833984 60.57641602 -72.29833984 60.57641602 -72.625 62.6875 C-75.07447479 65.7472098 -78.11384878 67.83291624 -81.3125 70.0625 C-82.14201172 70.67738281 -82.97152344 71.29226562 -83.82617188 71.92578125 C-87.3189563 74.48584938 -90.69987558 76.83783713 -94.625 78.6875 C-95.25881508 77.35833439 -95.88148484 76.02385391 -96.5 74.6875 C-96.84804687 73.945 -97.19609375 73.2025 -97.5546875 72.4375 C-103.32895293 57.60143115 -102.10566611 39.83172084 -96.25390625 25.27734375 C-89.22122828 9.77846831 -77.30798476 -1.55097485 -61.59765625 -8.24609375 C-40.59706175 -15.77981556 -18.02675687 -13.34733741 0 0 Z " fill="#E84234" transform="translate(104.625,13.3125)"/>
<path d="M0 0 C1.02814316 0.00222061 2.05628632 0.00444122 3.11558533 0.00672913 C4.85727745 0.00684242 4.85727745 0.00684242 6.63415527 0.00695801 C8.52943214 0.01469994 8.52943214 0.01469994 10.46299744 0.02259827 C12.39193092 0.02472069 12.39193092 0.02472069 14.35983276 0.02688599 C17.78427561 0.03071034 21.20867628 0.0405399 24.63310242 0.05158997 C28.12522308 0.06180587 31.61735053 0.06638399 35.10948181 0.07142639 C41.96561897 0.08216225 48.82172806 0.09923767 55.67784119 0.12025452 C61.13160273 12.80136963 57.1563459 29.08870427 52.42784119 41.43275452 C49.96928875 47.00547338 46.73198417 51.59536981 42.67784119 56.12025452 C42.19573181 56.71709045 41.71362244 57.31392639 41.21690369 57.92884827 C40.45506775 58.51859436 40.45506775 58.51859436 39.67784119 59.12025452 C36.49583273 58.67527927 34.57653546 57.50741686 32.11143494 55.50306702 C31.46110291 54.97841858 30.81077087 54.45377014 30.14073181 53.91322327 C29.13816345 53.08757874 29.13816345 53.08757874 28.11534119 52.24525452 C27.44309509 51.7025592 26.770849 51.15986389 26.07823181 50.60072327 C23.14162019 48.21527311 20.31991501 45.83308473 17.67784119 43.12025452 C18.56471619 42.48087952 19.45159119 41.84150452 20.36534119 41.18275452 C25.07971412 37.28390108 27.76688026 31.8531373 29.67784119 26.12025452 C28.713703 26.12549133 27.74956482 26.13072815 26.75621033 26.13612366 C23.19111554 26.1541757 19.62602482 26.16568726 16.06089783 26.17518616 C14.51564353 26.18022591 12.97039402 26.18705771 11.42515564 26.19569397 C9.2085909 26.20777528 6.992089 26.21348624 4.77549744 26.21791077 C3.73329796 26.22565269 3.73329796 26.22565269 2.67004395 26.23355103 C1.00554789 26.23374728 -0.6588138 26.18214581 -2.32215881 26.12025452 C-4.03783674 24.40457659 -3.45231706 22.14652717 -3.45497131 19.80775452 C-3.45626038 18.73267639 -3.45754944 17.65759827 -3.45887756 16.54994202 C-3.45307678 14.8522467 -3.45307678 14.8522467 -3.44715881 13.12025452 C-3.451026 11.98845764 -3.45489319 10.85666077 -3.45887756 9.69056702 C-3.4575885 8.61548889 -3.45629944 7.54041077 -3.45497131 6.43275452 C-3.45384338 5.43888733 -3.45271545 4.44502014 -3.45155334 3.42103577 C-3.27615754 0.30229973 -3.12119508 0.16163313 0 0 Z " fill="#4184F2" transform="translate(69.32215881347656,51.87974548339844)"/>
<path d="M0 0 C1.76909682 1.34451358 3.53409391 2.6945815 5.28515625 4.0625 C7.40236287 5.57348487 9.41839424 6.81464717 11.68359375 8.0625 C19.44564142 12.55935007 19.44564142 12.55935007 22 16 C22.71437231 20.37335241 22.42189797 23.76664478 21.61328125 28.0703125 C21.05437523 31.65158295 21.11749783 32.76573603 21.9609375 36.03125 C22 40 22 40 20.46459961 41.90966797 C18.16701711 43.88865305 15.80000533 45.64111246 13.3125 47.375 C12.48298828 47.98988281 11.65347656 48.60476562 10.79882812 49.23828125 C7.3060437 51.79834938 3.92512442 54.15033713 0 56 C-0.63381508 54.67083439 -1.25648484 53.33635391 -1.875 52 C-2.22304687 51.2575 -2.57109375 50.515 -2.9296875 49.75 C-5.68037007 42.68255282 -6.35824406 36.2663629 -6.3125 28.75 C-6.30903564 27.82630615 -6.30557129 26.9026123 -6.30200195 25.95092773 C-6.15455771 16.66519915 -4.72712608 8.10364471 0 0 Z " fill="#F9BA06" transform="translate(10,36)"/>
</svg>
